<?xml version="1.0" encoding="utf-8"?>
<!-- Generator: Adobe Illustrator 24.2.3, SVG Export Plug-In . SVG Version: 6.00 Build 0)  -->
<svg version="1.1" xmlns="http://www.w3.org/2000/svg" xmlns:xlink="http://www.w3.org/1999/xlink" x="0px" y="0px"
	 viewBox="0 0 300 300" style="enable-background:new 0 0 300 300;" xml:space="preserve">
<style type="text/css">
	.st0{fill:#013194;}
	.st1{fill:#FFFFFF;}
</style>
<g id="Layer_2">
	<circle class="st0" cx="150" cy="150" r="150"/>
</g>
<g id="Layer_3">
	<path class="st1" d="M188.23,92.67L150,42.7l-38.23,49.97c-28.84,37.73-40.24,54.66-40.24,79.98c0,21.46,5.53,31.86,25.65,46.45
		L150,257.33l52.82-38.23c20.12-14.59,25.65-24.98,25.65-46.45C228.47,147.33,217.07,130.39,188.23,92.67z M138.26,216.75
		l-0.34,10.4c0,1.34-0.84,1.51-1.68,0.84c-13.75-9.89-29.85-21.63-29.85-21.63c-16.77-12.07-17.77-25.15-17.77-34.04
		c0-6.04,0.84-12.58,3.69-19.28c0.17-0.5,0.5-1.34,1.01-1.34c0.34,0,0.5,0.17,0.67,0.5c5.87,8.55,15.26,22.47,24.65,33.87
		C136.75,207.86,138.6,206.02,138.26,216.75z M150,197.13c-0.17,0-0.34-0.17-0.5-0.17l-37.06-43.93c-4.19-5.03-6.54-10.56-6.54-16.1
		c0-3.69,1.34-7.55,4.02-11.07l39.57-54.33c0.17-0.17,0.34-0.34,0.5-0.34c0.17,0,0.34,0.17,0.5,0.34l39.57,54.33
		c2.52,3.52,4.02,7.38,4.02,11.07c0,5.53-2.18,11.07-6.54,16.1l-37.06,43.93C150.34,197.13,150.17,197.13,150,197.13z M193.6,206.35
		c0,0-16.26,11.74-29.85,21.63c-0.84,0.67-1.51,0.5-1.68-0.84l-0.34-10.4c-0.34-10.73,1.51-8.89,19.62-30.69
		c9.39-11.4,18.78-25.15,24.65-33.87c0.17-0.34,0.5-0.5,0.67-0.5c0.34,0,0.84,0.84,1.01,1.34c2.68,6.71,3.69,13.25,3.69,19.28
		C211.37,181.2,210.36,194.28,193.6,206.35z"/>
</g>
</svg>
