<?xml version="1.0" encoding="utf-8"?>
<!-- Generator: Adobe Illustrator 24.2.3, SVG Export Plug-In . SVG Version: 6.00 Build 0)  -->
<svg version="1.1" id="Layer_1" xmlns="http://www.w3.org/2000/svg" xmlns:xlink="http://www.w3.org/1999/xlink" x="0px" y="0px"
	 viewBox="0 0 300 300" style="enable-background:new 0 0 300 300;" xml:space="preserve">
<style type="text/css">
	.st0{fill:#FFFFFF;}
	.st1{fill:#99887D;}
	.st2{fill:#ED1B2D;}
	.st3{fill:#03A950;}
</style>
<g id="Layer_2_1_">
	<circle class="st0" cx="150" cy="150" r="150"/>
</g>
<g id="Layer_3">
	<g>
		<g>
			<g>
				<path class="st1" d="M220.78,222.66c-6.33-3.28-13.13-6.56-23.2-6.56c-8.91,0-16.17,3.28-22.97,6.56
					c-7.27,3.28-14.76,6.79-24.85,6.79c-8.91,0-15.47-3.05-22.5-6.33c-7.27-3.28-14.76-6.79-25.07-6.79
					c-8.91,0-16.17,3.28-23.2,6.33c-7.27,3.28-15,6.79-24.85,6.79c-0.46,0-1.18,0-1.64,0c0.94,1.18,2.12,2.58,3.05,3.75
					c10.07-0.24,17.58-3.75,24.85-7.03c7.03-3.05,13.36-6.09,21.56-6.09c9.37,0,16.17,3.28,23.44,6.56
					c7.03,3.28,14.53,6.79,24.14,6.79c10.79,0,18.76-3.75,26.49-7.27c6.79-3.05,13.36-6.09,21.56-6.09c9.15,0,15.24,3.05,21.56,6.33
					c6.79,3.52,14.06,7.03,25.78,7.03c1.18-1.18,2.12-2.58,3.28-3.98c-0.94,0-2.12,0.24-3.05,0.24
					C234.15,229.22,227.34,225.94,220.78,222.66"/>
				<path class="st1" d="M197.57,223.12c-8.91,0-16.17,3.28-22.97,6.56c-7.27,3.28-14.76,6.79-24.85,6.79
					c-8.91,0-15.47-3.05-22.5-6.33c-7.27-3.28-14.76-6.79-25.07-6.79c-8.91,0-16.17,3.28-23.2,6.33c-6.09,2.82-12.65,5.63-20.4,6.56
					c1.18,1.18,2.12,2.34,3.28,3.28c7.27-1.18,13.13-3.75,18.76-6.33c7.03-3.05,13.36-6.09,21.56-6.09c9.37,0,16.17,3.28,23.44,6.56
					c7.03,3.28,14.53,6.79,24.14,6.79c10.79,0,18.76-3.75,26.49-7.27c6.79-3.28,13.36-6.09,21.56-6.09c9.15,0,15.24,3.05,21.56,6.33
					c5.63,2.82,11.25,5.63,19.46,6.79c1.18-1.18,2.34-2.34,3.28-3.52c-9.15-0.46-15.24-3.75-21.1-6.56
					C214.21,226.4,207.66,223.12,197.57,223.12"/>
				<path class="st1" d="M197.57,230.16c-8.91,0-16.17,3.28-22.97,6.56c-7.27,3.28-14.76,6.79-24.85,6.79
					c-8.91,0-15.47-3.05-22.5-6.33c-7.27-3.28-14.76-6.79-25.07-6.79c-8.91,0-16.17,3.28-23.2,6.33c-4.45,2.12-9.15,4.22-14.53,5.39
					c1.18,0.94,2.12,2.12,3.28,3.05c4.45-1.4,8.67-3.28,12.65-4.92c7.03-3.05,13.36-6.09,21.56-6.09c9.37,0,16.17,3.28,23.44,6.56
					c7.03,3.28,14.53,6.79,24.14,6.79c10.79,0,18.76-3.75,26.49-7.27c6.79-3.05,13.36-6.09,21.56-6.09c9.15,0,15.24,3.05,21.56,6.09
					c3.98,2.12,7.97,3.98,13.13,5.39c1.18-0.94,2.34-2.12,3.52-3.05c-5.86-1.18-10.31-3.52-14.76-5.86
					C214.21,233.67,207.66,230.16,197.57,230.16"/>
				<path class="st1" d="M197.57,237.43c-8.91,0-16.17,3.28-22.97,6.56c-7.27,3.28-14.76,6.79-24.85,6.79
					c-8.91,0-15.47-3.05-22.5-6.33c-7.27-3.28-14.76-6.79-25.07-6.79c-8.91,0-16.17,3.28-23.2,6.33c-2.82,1.18-5.39,2.58-8.43,3.52
					c1.18,0.94,2.34,1.88,3.52,2.82c2.34-0.94,4.45-1.88,6.56-2.82c7.03-3.05,13.36-6.09,21.56-6.09c9.37,0,16.17,3.28,23.44,6.56
					c7.03,3.28,14.53,6.79,24.14,6.79c10.79,0,18.76-3.75,26.49-7.27c6.79-3.28,13.36-6.09,21.56-6.09c9.15,0,15.24,3.05,21.56,6.33
					c2.12,1.18,4.45,2.34,6.79,3.28c1.18-0.94,2.34-1.88,3.52-2.82c-3.05-1.18-5.86-2.58-8.67-3.98
					C214.21,240.7,207.66,237.43,197.57,237.43"/>
				<path class="st1" d="M197.57,244.46c-8.91,0-16.17,3.28-22.97,6.56c-7.27,3.28-14.76,6.79-24.85,6.79
					c-8.91,0-15.47-3.05-22.5-6.33c-7.27-3.52-14.76-6.79-25.07-6.79c-8.91,0-16.17,3.28-23.2,6.33c-0.7,0.46-1.64,0.7-2.34,1.18
					c1.18,0.94,2.34,1.64,3.52,2.58c0.24,0,0.24,0,0.46-0.24c7.03-3.05,13.36-6.09,21.56-6.09c9.37,0,16.17,3.28,23.44,6.56
					c7.03,3.28,14.53,6.79,24.14,6.79c10.79,0,18.76-3.75,26.49-7.27c6.79-3.28,13.36-6.09,21.56-6.09c9.15,0,15.24,3.05,21.56,6.33
					c0.24,0.24,0.46,0.24,0.94,0.46c1.18-0.7,2.34-1.64,3.52-2.34c-0.94-0.46-1.88-0.94-2.58-1.4
					C214.21,247.97,207.66,244.46,197.57,244.46"/>
				<path class="st1" d="M174.14,258.05c-7.27,3.28-14.76,6.79-24.85,6.79c-8.91,0-15.47-3.05-22.5-6.33
					c-7.27-3.28-14.76-6.79-25.07-6.79c-7.27,0-13.36,2.12-19.22,4.69c1.4,0.94,2.58,1.64,3.98,2.34c4.69-1.88,9.61-3.28,15.24-3.28
					c9.37,0,16.17,3.28,23.44,6.56c7.03,3.28,14.53,6.79,24.14,6.79c10.79,0,18.74-3.75,26.49-7.27c6.79-3.05,13.36-6.09,21.56-6.09
					c6.56,0,11.49,1.4,15.94,3.52c1.4-0.7,2.58-1.64,3.75-2.34c-5.39-2.58-11.49-4.92-19.68-4.92
					C188.68,251.71,181.17,255.01,174.14,258.05"/>
			</g>
			<path class="st2" d="M150,0C67.27,0,0,67.27,0,150s67.27,150,150,150s150-67.27,150-150S232.73,0,150,0L150,0z M150,276.09
				c-69.61,0-126.09-56.48-126.09-126.09S80.39,23.91,150,23.91S276.09,80.39,276.09,150S219.61,276.09,150,276.09"/>
		</g>
		<g>
			<path class="st3" d="M220.08,112.96c-0.94,4.69-5.63,9.61-8.21,11.72c-5.86,4.69-44.77,28.35-49.22,33.75
				c-4.45,5.39-5.16,13.59-5.16,19.68v45.71h6.09c0-3.98,0-10.79,0-11.72c0-3.98,2.34-10.31,7.03-15.24
				c7.97-8.43,26.49-18.76,38.9-27.65c10.07-7.49,10.79-17.58,10.79-26.25c0-7.27,0-27.43,0-31.17L220.08,112.96z"/>
			<path class="st3" d="M157.73,155.63c4.22-5.39,44.53-29.77,50.15-34.45c5.62-4.68,12.43-11.72,12.43-20.86
				c0-7.73,0-45.71,0-51.09c0,7.27-3.98,12.65-9.15,19.46c-5.86,7.73-32.81,22.26-46.17,31.64s-17.82,18.52-17.82,30.01
				c0,9.61,0,72.88,0,93.28h5.86c0-13.36,0-44.06,0-48.75C152.82,168.76,153.28,161.01,157.73,155.63z"/>
			<path class="st3" d="M127.26,102.65c-12.19-9.37-37.04-29.29-40.08-33.28c-3.05-3.98-9.37-11.01-9.37-19.68
				c0,6.33,0,41.72,0,47.57c0,6.79,3.28,18.98,15,27.65s28.35,21.1,33.52,26.25c4.92,4.92,9.61,14.06,9.61,26.95
				c0,9.37,0,34.45,0,45.93h5.86c0-19.68,0-79.22,0-91.17C142.27,117.89,139.45,112.04,127.26,102.65z"/>
		</g>
	</g>
</g>
</svg>
