<?xml version="1.0" encoding="utf-8"?>
<!-- Generator: Adobe Illustrator 24.2.3, SVG Export Plug-In . SVG Version: 6.00 Build 0)  -->
<svg version="1.1" xmlns="http://www.w3.org/2000/svg" xmlns:xlink="http://www.w3.org/1999/xlink" x="0px" y="0px"
	 viewBox="0 0 300 300" style="enable-background:new 0 0 300 300;" xml:space="preserve">
<style type="text/css">
	.st0{fill:#705F5F;}
	.st1{fill:#FFD505;}
</style>
<g id="Layer_2">
	<circle class="st0" cx="150" cy="150" r="150"/>
</g>
<g id="Layer_3">
	<g>
		<path class="st1" d="M113.38,127.57c3.53,7.56,7.73,14.96,13.28,21.18c2.02-3.7,3.53-7.56,5.21-11.43
			c6.55-17.14,10.08-35.29,12.44-53.28c1.68-13.61,2.86-27.56,2.69-41.18c-15.63,0.34-31.6,4.37-45.71,11.43
			c-0.34,0.17-0.84,0.5-1.18,0.84c-0.34,2.69,0,5.55-0.17,8.24C100.44,85.22,104.3,107.4,113.38,127.57z"/>
		<path class="st1" d="M164.47,126.73c2.35,7.4,5.04,14.96,8.74,21.85c4.03-4.71,7.4-9.92,10.42-15.29
			c8.91-16.64,13.61-35.46,15.46-54.29c0.67-7.9,1.18-15.97,0.84-23.87c-3.53-2.18-7.56-3.7-11.26-5.38
			c-11.43-4.37-23.53-6.72-35.8-7.06c-0.17,6.72,0.17,13.45,0.67,20C155.06,84.38,158.08,105.89,164.47,126.73z"/>
		<path class="st1" d="M74.05,137.32c8.07-11.93,12.94-25.71,16.13-39.66c2.86-12.94,4.37-26.22,4.37-39.5
			c-0.84,0.34-1.68,0.84-2.35,1.34c-13.61,8.74-25.38,20.5-33.95,34.45c-12.61,20.34-17.98,45.38-14.96,69.08
			C55.9,157.82,66.49,148.41,74.05,137.32z"/>
		<path class="st1" d="M244.97,99.84c-7.56-14.45-18.66-27.23-31.93-36.81c-2.52-1.68-4.87-3.53-7.56-4.87
			c0,10.59,1.01,21.34,2.86,31.93c2.86,15.97,7.9,31.93,16.64,45.55c7.56,11.93,18.49,22.02,31.76,27.4
			C259.43,141.52,255.23,119,244.97,99.84z"/>
		<path class="st1" d="M117.75,168.25c-0.67-1.34-2.02-2.35-3.03-3.53c-4.54-5.21-8.24-11.09-11.43-17.14
			c-2.52-4.87-4.37-10.08-6.05-15.13c-1.01,1.51-1.51,3.19-2.02,4.87c-3.03,8.57-7.39,16.81-12.94,24.03
			c-8.57,11.09-20,20.5-33.28,25.38c0.17,1.01,0.5,2.02,0.84,2.86c3.36,8.4,7.73,16.47,13.11,23.7c2.18,2.69,4.2,5.71,6.72,8.07
			c1.68-0.5,3.03-1.51,4.54-2.35c16.13-10.42,28.91-25.55,38.66-41.85C114.72,174.3,116.57,171.44,117.75,168.25z"/>
		<path class="st1" d="M151.36,137.99c-0.5-1.85-0.34-3.87-1.51-5.38c-1.18,1.51-1.01,3.7-1.51,5.38
			c-3.53,18.15-8.91,36.13-16.13,53.11c-8.24,19.16-18.99,37.65-34.12,52.27c-0.67,0.84,0.84,1.18,1.34,1.51
			c15.13,7.9,32.27,12.27,49.41,12.44c18.32,0.17,36.97-4.37,52.94-13.45c-15.13-14.96-26.39-33.61-34.62-53.11
			C160.44,173.79,154.89,156.14,151.36,137.99z"/>
		<path class="st1" d="M204.64,137.15c-0.5-1.51-0.84-3.19-1.85-4.54c-1.01,1.68-1.51,3.7-2.18,5.55
			c-4.03,10.92-10.08,21.01-17.98,29.58c-0.84,0.67-0.17,1.51,0.17,2.18c3.53,6.72,7.56,13.11,11.93,19.16
			c8.57,11.6,18.82,22.18,31.09,30.25c1.34,0.84,2.69,1.85,4.2,2.18c1.18-0.84,2.02-2.18,2.86-3.19
			c5.71-6.89,10.42-14.45,14.29-22.52c1.34-2.86,2.69-5.88,3.53-8.91c-7.23-2.69-13.78-6.55-19.66-11.43
			C218.92,165.39,209.85,151.94,204.64,137.15z"/>
	</g>
</g>
</svg>
