<?xml version="1.0" encoding="utf-8"?>
<!-- Generator: Adobe Illustrator 24.2.3, SVG Export Plug-In . SVG Version: 6.00 Build 0)  -->
<svg version="1.1" xmlns="http://www.w3.org/2000/svg" xmlns:xlink="http://www.w3.org/1999/xlink" x="0px" y="0px"
	 viewBox="0 0 300 300" style="enable-background:new 0 0 300 300;" xml:space="preserve">
<style type="text/css">
	.st0{fill:#13A1E4;}
	.st1{fill:#FFFFFF;}
</style>
<g id="Layer_2">
	<circle class="st0" cx="150" cy="150" r="150"/>
</g>
<g id="Layer_3">
	<g id="g6429_1_" transform="matrix(1.25,0,0,-1.25,363.7077,521.25435)">
		<path id="path6431_1_" class="st1" d="M-138.17,248.69c0,0,1,1.67,1.5-0.67c0,0,1-13.51-6.84-21.85
			c-5.34-5.5-17.68-13.34-31.52-9.84c0,0,22.18,1.5,27.85,23.51l0.67,2.5C-146.84,242.35-141.34,243.85-138.17,248.69
			 M-87.64,316.73c0,0.33,0,0.5-0.17,0.83c0,0-0.33,1.33-1.17,3.67c-0.17,0.33-0.33,0.67-0.33,1l0,0c0,0.17-0.17,0.33-0.17,0.33
			c-1.5,3.5-4.34,8.5-9.17,13.34c0,0,5.17,0.33-0.5,6.67c0,0-9.34,11.01-27.52,19.51c-9.67,4.5-20.68,2.67-19.68-8.17
			c0.67-7.5-6.34-10.51-11.84-9.84c-6.5,0.83-10.51,6.17-9.34,10.51c1.17,4.67,3.5,8.34,7.17,11.17c2.5,2,4.17,3.34,8.67,4.17
			c2.67,0.5,6.34,1.5,7.34-1.67c1.83,1,5.17,7.34-5.67,7.34c0,0-1.67,3.5-5.34,2.83c0,0-10.84,10.67-23.01-2.5c0,0-4.67-1.83-5,0
			c1-0.83,2.83,1.67,0.5,2.67c-1.17,0.5-2.5-0.83-2.67-1.83c-0.17-0.83,0.17-2.83,2.5-3.17c0.67-0.17,1.83,0,1.83,0l-0.83-1
			c-3.67-1.5-7-0.33-7.67,2.17c0.83-0.5,1.83,0.17,2,1c0.33,1-0.33,2.33-1.83,2.5c-2,0.33-2.83-2-2.5-4
			c0.67-3.17,3.67-5.34,7.67-4.67l-0.67-1c0,0-4-5-7.17-10.67c-3.34-5.67-16.84-12.01-14.51,1.67c0.67,4.34-6.5,9.51-19.34,0.83
			c-6.67-4.67-15.01-11.67-21.35-23.01c0,0-2.67-4.34,1.83-4.5c0,0-9.17-4.34-9.67-25.18l0,0c0,0,0-0.83,0-2c0-0.67,0-1.5,0-2.17
			c0-2.33,0.17-5,0.33-6.5c0,0,1-12.51,3.17-14.68c0,0,0.17,0,0.33,0c0.67-0.5,1.5-0.67,2.67,0.5l0,0c0-0.17,2.83-14.17,8.5-26.01
			c4.67-9.34,13.17-23.01,9.84-26.35c-3.34-3.34-8,3.34-7.34,0.67c1.5-5.5,7.34-6.34,10.34-4c8,6.34-3.67,21.51-7.34,40.69
			c7.67,3.34,7.34,15.34,7.34,15.34s10.84,0.33,14.17,13.17c0,0,13.17-3.84,19.51,7.67c0,0,0,0,0,0.17l0.17,0.17
			c1.33-4,3.84-7.5,7.34-10.67c0,0-0.67-5.5-6.84-7.5c0,0-7.5,3.17-15.84,0c-7.5-3-4.5-11.01,1-9.01c-1.67,0.83-2.17,3.5,0.5,4.17
			c0.67-0.5,1.33-0.83,2.17-1l0,0c0.17,0,6.67-1.17,11.34,0.67c0.33,0.17,0.67,0.17,1,0.5h0.17l0,0c0.5,0.33,0.83,0.67,1.17,1
			c1.67-0.17,2.83-2.67,0.5-3.84c4.5-1,6.17,3.84,4.34,6.34c0,0,1,0.67,2.33,1.67c0,0,1.5,1.33,2.5,3c0,0,4.5-3.5,12.67-5.5
			c0,0-4.34-7.17-10.67-8.5c0,0-9.01,3-15.18-0.83c0,0-3.34-1.83-2.83-5.34c0.33-2.67,2.67-4.67,5.84-4.17
			c-1.33,0.67-4.34,4-0.5,5.5c0.67-1,1.5-1.67,2.67-1.83l0,0c0,0,5.67-1.33,12.67,1.67c0.33,0.17,0.5,0.17,0.83,0.33
			c0,0,0.17,0,0.33,0.17l0,0c0.5,0.33,0.83,0.67,1,1c1.83,0.33,4.34-0.5,3.34-4c2.17,0.33,5.67,4.17,0.5,7.34c0,0,3,1.5,5.5,3.67
			l3.67,3.67c7.17-1,12.51-7.84,12.51-16.18c0-6.84-5.84-14.84-12.01-16.51c0.17,0,0.5,0.17,0.67,0.17l-0.83-0.17h0.17
			c-1-0.17-2-0.33-3.34-0.33c-6.34,0.17-2.5,7.5-2.5,7.5c-1,0.17-2-0.17-2.83-1.17c-1-1.17-1.33-3.34-1-5.67
			c-0.33,0.17-0.67,0.17-0.83,0.33c-5.5,2.33-5.17,6.5-5.17,6.5c-1.5-0.67-2.5-2.5-2-5.67c0.83-4.17,6.17-6,10.51-6.5
			c2.5-2.5,6.5-5,15.68-3.5c0,0-4-21.35-31.02-20.35c0,0-8.17,3-7.84,9.84c0.33,9.17,6.67,12.34,6.67,12.34
			c-2.33,0.33-8-0.33-10.51-7.84c-1.17-3.34-0.83-9.01,2.17-12.84c-10.17,2.67-17.84,10.34-14.68,21.01c0.5,1.67,1.5,3.34,2.83,4.84
			c7.67,7.17,19.01,2.83,19.01,2.83c-0.5,2.5-3.67,5.84-9.34,6.17c-5.84,0.33-17.01-3.17-17.84-16.68
			c-0.83-12.34,7-21.35,26.52-24.18l0.33-0.17c0,0,11.84-8.34,28.52-3.84c0,0,33.69,6.84,26.52,45.36c0,0,7.84,25.68-8.67,40.19
			c10.17-8.34,22.68-3.5,22.68-3.5c-0.83-23.35,9.01-26.35,9.01-26.35l0.33,0.17c0,0-18.51-39.86-7.67-45.03
			c3.67-1.67,8-0.83,10.17,3.84c1.83,3.84-4-3.67-7.34-0.5c-4,4,1,13.51,5.84,23.68c6.84,13.67,11.34,23.85,12.17,30.68
			c0,0,1-0.67,2.17-0.17l0.17-0.17c2.67,0.67,4.34,11.67,4.67,13.51C-85.97,304.38-86.64,311.89-87.64,316.73"/>
	</g>
</g>
</svg>
