<?xml version="1.0" encoding="utf-8"?>
<!-- Generator: Adobe Illustrator 24.2.3, SVG Export Plug-In . SVG Version: 6.00 Build 0)  -->
<svg version="1.1" xmlns="http://www.w3.org/2000/svg" xmlns:xlink="http://www.w3.org/1999/xlink" x="0px" y="0px"
	 viewBox="0 0 300 300" style="enable-background:new 0 0 300 300;" xml:space="preserve">
<style type="text/css">
	.st0{fill:#4D297C;}
	.st1{fill:#F1AD00;}
</style>
<g id="Layer_2">
	<circle class="st0" cx="150" cy="150" r="150"/>
</g>
<g id="Layer_3">
	<path class="st1" d="M45.2,232.22c17.23,8.06,34.47,16.3,51.7,24.54c0.75,0.56,2.06,0.56,3,0.56c13.11,0,26.23,0,39.34,0
		c2.25,0,2.62-0.75,2.62-2.81c-0.19-11.61,0-23.23,0-34.84c0-0.75-0.19-1.12-0.19-2.25c-0.94,0.56-1.87,0.75-2.62,1.12
		c-11.99,5.25-24.35,9.55-37.84,7.87c-5.25-0.75-9.93-2.44-13.86-6.18c-6.93-6.56-8.8-15.17-8.99-24.17
		c-0.19-7.49,0.56-14.99,1.5-22.48c0.94-8.8,3.18-17.23,6.93-25.29c9.93-21.92,24.54-40.65,41.77-57.14
		c5.62-5.43,12.36-9.74,18.73-14.61c1.5-1.12,3-1.12,4.68,0c5.06,3.75,10.3,7.12,14.99,11.05c12.18,10.68,22.48,22.85,31.47,36.16
		c9.18,13.3,16.86,27.54,19.86,43.65c2.25,11.8,3.75,23.79,1.69,35.78c-3,16.11-12.55,23.04-26.98,23.42
		c-7.12,0.19-14.05-1.31-20.79-3.75c-4.87-1.69-9.74-3.75-14.61-5.62c0,0.75,0,1.12,0,1.69c0,11.61,0,23.23,0,34.66
		c0,2.44,0.75,3,3.18,3c12.74-0.19,25.29,0,38.03-0.19c1.69,0,3.37-0.56,4.87-1.12c16.67-7.87,33.35-15.92,49.83-23.79
		c3.37-1.69,3.37-1.5,2.44-5.25c-9.37-36.72-18.55-73.25-27.91-109.96c-0.37-1.12-0.94-2.44-2.06-3.56
		c-3.75-3.75-7.68-7.31-11.43-10.87c-7.31-6.74-14.61-13.49-22.11-20.23c-9.93-8.99-19.67-17.8-29.6-26.98
		c-3.75-3.56-7.87-7.12-11.61-10.87c-1.31-1.12-2.25-1.12-3.56,0.19c-1.69,1.69-3.56,3.18-5.25,4.68
		c-7.68,7.12-15.36,14.24-23.04,21.17c-8.24,7.49-16.3,14.99-24.73,22.48c-5.99,5.43-11.99,10.87-17.98,16.3
		c-2.25,2.25-5.06,4.12-5.99,7.68c-9.18,36.53-18.36,73.25-27.73,109.78C42.58,229.98,42.96,231.29,45.2,232.22z"/>
</g>
</svg>
