<?xml version="1.0" encoding="utf-8"?>
<!-- Generator: Adobe Illustrator 24.2.3, SVG Export Plug-In . SVG Version: 6.00 Build 0)  -->
<svg version="1.1" xmlns="http://www.w3.org/2000/svg" xmlns:xlink="http://www.w3.org/1999/xlink" x="0px" y="0px"
	 viewBox="0 0 300 300" style="enable-background:new 0 0 300 300;" xml:space="preserve">
<style type="text/css">
	.st0{fill:#FFFFFF;}
	.st1{fill:#F38020;}
	.st2{fill:#ED1C24;}
	.st3{fill:#FF7B00;}
	.st4{fill:none;}
	.st5{fill:#FF000F;}
	.st6{fill:#AA0017;}
	.st7{fill:#FFCD00;}
</style>
<g id="Layer_2">
	<circle class="st0" cx="150" cy="150" r="150"/>
</g>
<g id="Layer_3">
	<g>
		<g>
			<g>
				<g>
					<path class="st1" d="M248.98,198.58c-0.71-6.24-4.4-12.71-12.41-12.71c0,0-10.78,0-11.64,14.61c-0.02,0.29,0,0.58,0.01,0.87
						c0.03,0.76,0.11,1.51,0.22,2.26c0.16,1.04,0.39,2.08,0.71,3.08c0.37,1.16,0.86,2.29,1.49,3.34c0.68,1.14,1.53,2.18,2.54,3.04
						c1.14,0.97,2.46,1.69,3.88,2.16c0.88,0.29,1.82,0.52,2.74,0.61c1.27,0.12,2.56-0.05,3.79-0.36c1.99-0.49,3.83-1.45,5.37-2.81
						c0.64-0.56,1.26-1.2,1.73-1.91c0,0,1-1.51,0.44-3.01c-0.35-0.95-1.07-1.83-2.14-1.92c-1.23-0.11-1.93,0.84-2.69,1.62
						c0,0-1.89,2.36-5.6,2.36c-2.31,0-4.03-1.07-5.14-2.83c-0.73-1.16-1.18-2.68-1.26-4.04c0,0,0.62,0,0.93,0c0.8,0,1.6,0,2.39,0
						c1.08,0,2.16,0,3.25,0c1.17,0,2.33,0,3.49,0c1.23,0,2.47-0.01,3.7,0c0.41,0,0.83-0.01,1.24,0.02c0.41,0.02,0.84,0.03,1.23-0.09
						c0.5-0.14,1.04-0.55,1.31-0.97C249.23,200.92,249.1,199.7,248.98,198.58z M231.12,197.79c0,0,0.81-5.89,6.02-5.89
						c5.08,0,5.95,5.89,5.95,5.89H231.12z"/>
				</g>
				<path class="st1" d="M248.92,191.87c0.09,0.27,0.19,0.54,0.28,0.8c0,0.32,0.3,0.81,0.41,1.12c0.14,0.39,0.29,0.78,0.43,1.18
					c0.29,0.78,0.57,1.57,0.86,2.35c0.56,1.53,1.12,3.06,1.7,4.58c0.64,1.72,1.3,3.43,1.96,5.14c0.34,0.87,0.67,1.74,1.02,2.61
					c0.17,0.43,0.33,0.85,0.5,1.28c0.08,0.21,0.17,0.43,0.25,0.64c0.04,0.11,0.29,0.54,0.25,0.64c-0.5,1.26-1.04,2.52-1.75,3.68
					c-0.88,1.45-2.1,2.72-3.4,3.79c-0.28,0.23-1.23,0.97-1.54,1.16c-0.66,0.41-1.35,0.69-1.87,1.29c-0.52,0.59-0.8,1.33-0.8,2.12
					c0,0.64,0.15,1.29,0.5,1.83c0.29,0.45,0.68,0.83,1.16,1.08c0.49,0.26,1.12,0.18,1.64,0.02c0.49-0.16,0.94-0.42,1.38-0.69
					c1.93-1.19,3.72-2.63,5.23-4.31c0.15-0.17,0.29-0.34,0.43-0.51c0.16-0.2,0.33-0.41,0.47-0.62c0,0,2.43-3.17,3.87-6.88
					c1.44-3.71,3.2-8.54,3.2-8.54c1.22-3.25,2.43-6.5,3.67-9.74c0.44-1.16,0.88-2.31,1.32-3.47c0.47-1.22,0.94-2.55,0.56-3.8
					c-0.51-1.69-2.84-2.84-4.21-1.38c-0.51,0.55-0.79,1.26-1.05,1.96c-1.19,3.17-2.38,6.34-3.56,9.51
					c-0.51,1.36-1.01,2.72-1.52,4.08c-0.1,0.27-0.76,1.45-0.65,1.74c-0.62-1.63-1.24-3.26-1.86-4.9c-1.15-3.01-2.3-6.03-3.43-9.05
					c-0.27-0.73-0.55-1.47-0.85-2.19c-0.26-0.64-0.72-1.21-1.33-1.55c-0.91-0.5-2.13-0.27-2.86,0.45c-0.67,0.67-0.91,1.68-0.85,2.63
					C248.53,190.59,248.71,191.23,248.92,191.87z"/>
				<path class="st1" d="M135.43,189.22c-0.04,0.38-0.04,0.76-0.03,1.14c0.01,1.1,0.01,2.19,0.01,3.28c0,0.89,0,1.78,0,2.67
					c0,0.99,0,1.97,0,2.96c0,1.02,0,2.03,0,3.05c0,0.99,0,1.97,0,2.96c0,0.89,0,1.79,0,2.68c0,0.8,0,1.59,0,2.39
					c0,0.73-0.05,1.48,0.04,2.21c0.09,0.78,0.36,1.56,0.89,2.16c0.46,0.51,1.08,0.81,1.76,0.87c0.09,0.01,0.19,0.01,0.29,0.01
					c0.89,0,1.67-0.43,2.18-1.16c0.43-0.62,0.66-1.34,0.76-2.08c0.1-0.78,0.08-1.57,0.07-2.35c-0.01-0.65,0-1.31,0-1.96
					c0-0.64,0-1.29,0-1.93c0-0.45,0-0.89,0-1.34c0-0.81,0-1.63,0-2.44c0-0.74,0-1.47,0-2.21c0-0.58,0-1.15,0-1.73
					c0-0.79-0.02-1.57,0.16-2.35c0.24-1.03,0.71-2.08,1.51-2.8c0.74-0.67,1.71-0.99,2.7-1.03c0.09,0,0.17-0.01,0.26-0.01
					c0.99,0,1.97,0.29,2.73,0.95c0.66,0.58,1.08,1.36,1.37,2.17c0.4,1.15,0.4,2.39,0.4,3.6c0,2.4-0.01,4.79-0.01,7.19
					c0,1.8,0,3.59,0,5.39c0,0.28,0,0.56,0,0.83c0,0,0.26,3.25,2.94,3.25c2.68,0,2.92-2.99,2.92-2.99v-14.34c0,0,0.06-6.05,5.06-6.05
					c4.63-0.01,4.21,5.92,4.21,5.92v14.55c0,0,0.38,2.91,2.93,2.91c2.55,0,2.91-2.85,2.91-2.85v-15.93c0,0-0.33-10.93-8.7-10.93
					c-6.08,0-8.15,4.86-8.21,4.85c-0.02,0-0.05-0.08-0.06-0.1c-0.05-0.09-0.09-0.18-0.14-0.26c-0.07-0.13-0.15-0.27-0.23-0.4
					c-0.1-0.17-0.21-0.33-0.32-0.5c-0.13-0.19-0.27-0.38-0.42-0.56c-0.17-0.21-0.34-0.41-0.52-0.6c-0.2-0.21-0.41-0.41-0.63-0.6
					c-0.24-0.2-0.48-0.39-0.74-0.56c-0.27-0.18-0.56-0.35-0.85-0.5c-0.88-0.44-1.86-0.69-2.84-0.75c-0.25-0.01-0.51-0.03-0.76-0.03
					c-0.63,0.01-1.24,0.13-1.82,0.35c-0.34,0.13-0.66,0.29-0.98,0.48c-0.31,0.18-0.6,0.39-0.88,0.61c-0.32,0.26-0.63,0.55-0.91,0.85
					c-0.33,0.35-0.64,0.73-0.92,1.13c-0.04,0.05-0.07,0.1-0.11,0.16c0,0-0.35-3.37-2.95-3.37c-1.05,0-1.92,0.58-2.44,1.47
					c-0.19,0.33-0.36,0.69-0.47,1.06C135.49,188.81,135.46,189.02,135.43,189.22z"/>
				<g>
					<path class="st1" d="M185.83,185.83c-6.84,0-12.38,6.72-12.38,15c0,8.29,5.54,15,12.38,15s12.38-6.72,12.38-15
						C198.22,192.55,192.67,185.83,185.83,185.83z M185.83,209.58c-3.65,0-6.61-3.9-6.61-8.72c0-4.82,2.96-8.72,6.61-8.72
						c3.65,0,6.61,3.9,6.61,8.72C192.44,205.67,189.48,209.58,185.83,209.58z"/>
				</g>
				<path class="st1" d="M206.04,189.52c0-0.61-0.14-1.21-0.44-1.74c-0.43-0.77-1.23-1.64-2.65-1.64c-0.86,0-1.6,0.44-2.09,1.14
					c-0.2,0.28-0.36,0.59-0.48,0.91c-0.18,0.47-0.25,0.93-0.25,1.43c0,0.02,0,0.04,0,0.06c0,1.1,0,2.2,0,3.31c0,0.73,0,1.46,0,2.18
					c0,0.81,0,1.63,0,2.44c0,0.86,0,1.73,0,2.59c0,0.87,0,1.75,0,2.62c0,0.85,0,1.69,0,2.54c0,0.78,0,1.56,0,2.34
					c0,0.68,0,1.35,0,2.03c0,0.53,0,1.07,0,1.6c0,0.64-0.06,1.27,0.12,1.9c0.38,1.33,1.47,2.39,2.9,2.39c2.51,0,2.83-2.81,2.83-2.81
					v-13.55c0-0.73,0.1-1.46,0.29-2.16c0.52-1.88,1.8-4.94,5.43-4.94c1.2,0,2.35,0.39,3.24,1.2c0.74,0.68,1.24,1.57,1.58,2.5
					c0.65,1.76,0.58,3.61,0.57,5.45c0,0.55-0.01,1.09-0.01,1.64c0,1.33,0,2.66,0,4c0,1.21,0,2.42,0,3.62c0,0.94-0.14,1.89,0.17,2.8
					c0.44,1.24,1.53,2.26,2.9,2.26c0.99,0,1.8-0.52,2.28-1.37c0.5-0.88,0.54-1.78,0.54-2.77c0-2.04-0.01-4.08-0.01-6.12
					c0-1.94,0-3.88,0-5.82c0-2.27-0.24-4.49-1-6.65c-0.53-1.52-1.28-2.99-2.34-4.21c-1.17-1.34-2.71-2.3-4.46-2.64
					c-0.56-0.11-1.12-0.16-1.69-0.16c-4.61,0-6.96,3.13-7.35,3.68C206.11,189.57,206.04,189.55,206.04,189.52z"/>
			</g>
			<g>
				<path class="st2" d="M41.79,179.6l-8.55,0.03l0.02,7.04l-4.04,0.03l-0.02,7.67h4.07c0,0-0.02,10.39,0,10.88
					c0.02,0.49,0.14,3.56,3.38,6.59c3.75,3.7,8.23,3.63,8.23,3.63l6.42-0.02l0-7.3c0,0-1.72,0-5.3,0c-3.58,0-4.21-4.32-4.21-4.32
					l0.02-9.43c0,0,2.69-0.02,5.79-0.03c3.11-0.02,3.7-3.43,3.7-3.43v-4.26l-9.51,0.02V179.6z"/>
				<path class="st2" d="M64.47,186.71c-1.32,0-3.67,0.08-7.02,2.89c-3.34,2.81-3.92,6.79-3.9,7.76c0.02,0.97,0.01,18.12,0.01,18.12
					l8.29,0.01c0,0,0.01-14.51,0.01-16.94c0-2.42,3.65-4.16,4.65-4.16c1,0,4.87,0.01,4.87,0.01l-0.04-7.69
					C71.34,186.71,65.79,186.71,64.47,186.71z"/>
				<path class="st2" d="M99.54,186.71l-8.69,0.03c0,0,0.03,15.99,0.03,17.41c0,1.42-1.34,4.26-4.61,4.26
					c-3.27,0-4.33-3.52-4.33-4.28c0-0.76,0.03-10.85,0.03-13.73c0-2.89-2.86-3.7-3.55-3.7c-0.68,0-4.97,0.05-4.97,0.05
					s-0.03,16.32-0.03,17.79s0.2,4.31,2.96,7.42c2.76,3.12,6.11,3.95,10.09,3.9c3.98-0.05,6.39-0.73,9.6-3.29
					c3.22-2.56,3.52-7.6,3.5-9.1C99.54,201.96,99.54,186.71,99.54,186.71z"/>
				<path class="st2" d="M128.43,196.24c-1.04-3.32-2.13-4.84-3.95-6.69c-2.91-2.96-7.27-3.65-9.33-3.65c-2.05,0-5.57,0.51-9.2,3.5
					c-3.62,2.99-4.89,8.06-4.99,12.06c-0.1,4,2,8.49,4.84,11.12c2.84,2.64,6.39,3.32,9.58,3.29c3.19-0.03,5.09-0.68,7.8-2.31
					c2.71-1.62,4.61-5.14,4.61-5.14s-6.54-1.65-7.91-2.03c-0.63,0.94-2.41,2.46-5.09,2.38c-2.69-0.08-4.26-2.08-4.94-3.09
					c-0.21-0.31-0.36-0.96-0.48-1.75c3.77,0,18.35-0.02,19.56-0.02C128.98,200.3,129.06,198.75,128.43,196.24z M109.26,198.09
					c0.45-1.73,2.07-5.17,6.17-4.89c4.87,0.33,5.37,4.92,5.37,4.92L109.26,198.09z"/>
			</g>
		</g>
		<g>
			<path class="st3" d="M217.54,80.96h-36.9c-2.41,0-4.55,1.52-5.35,3.8c-1.76,5.05-3.74,10.73-5.78,16.6c0,0,0,0,0,0
				c-0.06,0.18-0.13,0.36-0.19,0.55c-0.04,0.13-0.09,0.25-0.13,0.38c-6.38,18.31-13.29,38.13-15.91,45.64c-0.3,0.94-0.65,2-1.08,3.1
				c-0.07,0.19-0.44,1.12-1.11,2.03c-0.11,0.16-0.23,0.3-0.34,0.43c-0.19,0.23-0.44,0.5-0.8,0.78c-0.02,0.02-0.04,0.03-0.06,0.04
				c-0.12,0.1-0.26,0.2-0.42,0.29c-0.39,0.24-0.73,0.36-0.86,0.41c-0.02,0.01-0.04,0.01-0.06,0.02c0,0-0.01,0-0.01,0
				c-0.01,0-0.02,0.01-0.03,0.01c-0.01,0-0.02,0.01-0.03,0.01c-0.47,0.16-0.91,0.22-1.26,0.24c14.78,0,29.57,0,44.35,0
				c0.29,0,0.57-0.03,0.85-0.1c1.08-0.28,3.38-1.28,4.36-4.84l23.04-66.19C220.37,82.6,219.2,80.96,217.54,80.96z"/>
			<g>
				<path class="st4" d="M125.21,94.74L125.21,94.74l-0.01,0.02C125.21,94.75,125.21,94.74,125.21,94.74L125.21,94.74L125.21,94.74z
					"/>
				<path class="st5" d="M108.33,142.74c0.01-0.03,0.02-0.05,0.03-0.08c0.03-0.08,0.06-0.16,0.08-0.24
					c0.05-0.13,0.09-0.26,0.14-0.39c0.06-0.18,0.12-0.36,0.19-0.53c0.08-0.22,0.16-0.45,0.23-0.67c0.09-0.26,0.19-0.53,0.28-0.79
					c0.11-0.3,0.21-0.61,0.32-0.91c0.12-0.34,0.24-0.68,0.36-1.02c0.13-0.38,0.26-0.75,0.39-1.13c0.14-0.41,0.29-0.81,0.43-1.22
					c0.15-0.44,0.31-0.87,0.46-1.31c0.16-0.46,0.32-0.92,0.49-1.38c0.17-0.48,0.34-0.97,0.51-1.45c0.18-0.51,0.35-1.01,0.53-1.52
					c0.18-0.52,0.37-1.05,0.55-1.57c0.19-0.54,0.38-1.08,0.57-1.62c0.19-0.55,0.39-1.1,0.58-1.66c0.2-0.56,0.39-1.12,0.59-1.69
					c0.2-0.57,0.4-1.14,0.6-1.71c0.2-0.57,0.4-1.15,0.6-1.72c0.2-0.58,0.4-1.15,0.61-1.73c0.2-0.58,0.4-1.15,0.61-1.73
					c0.2-0.57,0.4-1.15,0.6-1.72c0.2-0.57,0.4-1.13,0.6-1.7c0.2-0.56,0.39-1.12,0.59-1.68c0.19-0.55,0.38-1.09,0.58-1.64
					c0.19-0.53,0.37-1.07,0.56-1.6c0.18-0.52,0.36-1.03,0.54-1.55c0.17-0.5,0.35-1,0.52-1.49c0.17-0.48,0.33-0.95,0.5-1.43
					c0.16-0.45,0.32-0.9,0.48-1.35c0.15-0.42,0.3-0.85,0.45-1.27c0.14-0.39,0.28-0.79,0.42-1.18c0.13-0.36,0.25-0.72,0.38-1.09
					c0.11-0.33,0.23-0.65,0.34-0.98c0.1-0.29,0.2-0.58,0.3-0.87c0.09-0.25,0.17-0.5,0.26-0.74c0.07-0.21,0.14-0.41,0.22-0.62
					c0.12-0.33,0.22-0.68,0.38-1l0.01-0.02l0.01-0.01l0-0.01l0.01-0.01c0.03-0.06,0.04-0.11,0.08-0.17c0.31-0.67,1.11-1.4,1.44-1.5
					l-5-16.79c-0.62-2.14-2.67-3.61-4.81-3.61H81.7c-1.66,0-2.85,1.6-2.38,3.19l19.84,66.69c0.82,2.37,2.6,3.6,4.42,3.69
					c0,0,0,0,0,0C105.47,146.3,107.4,145.14,108.33,142.74z"/>
				<polygon class="st6" points="126.75,93.06 126.75,93.06 126.73,93.07 				"/>
				<path class="st6" d="M140.51,145.93c-0.08-0.28-0.16-0.55-0.25-0.83c-0.04-0.14-0.08-0.28-0.13-0.43l-8.5-28.57l-5.95-19.98
					c-0.22-0.75-0.15-1.49,0.17-2.1c0.08-0.15,0.17-0.28,0.27-0.41c0.01-0.02,0.02-0.03,0.04-0.05c0.14-0.17,0.31-0.33,0.51-0.46
					c0.02-0.01,0.04-0.03,0.07-0.04l0.02-0.01c-0.33,0.1-1.13,0.83-1.44,1.5c-0.03,0.06-0.07,0.12-0.1,0.18
					c0,0.01-0.01,0.02-0.01,0.03c-0.16,0.32-0.26,0.66-0.38,1c-0.07,0.21-0.14,0.41-0.22,0.62c-0.09,0.25-0.17,0.5-0.26,0.74
					c-0.1,0.29-0.2,0.58-0.3,0.87c-0.11,0.33-0.23,0.65-0.34,0.98c-0.13,0.36-0.25,0.72-0.38,1.09c-0.14,0.39-0.28,0.79-0.42,1.18
					c-0.15,0.42-0.3,0.85-0.45,1.27c-0.16,0.45-0.32,0.9-0.48,1.35c-0.17,0.48-0.33,0.95-0.5,1.43c-0.17,0.5-0.35,1-0.52,1.49
					c-0.18,0.52-0.36,1.03-0.54,1.55c-0.19,0.53-0.37,1.07-0.56,1.6c-0.19,0.55-0.38,1.09-0.58,1.64c-0.2,0.56-0.39,1.12-0.59,1.68
					c-0.2,0.57-0.4,1.13-0.6,1.7c-0.2,0.57-0.4,1.15-0.6,1.72c-0.2,0.58-0.4,1.15-0.61,1.73c-0.2,0.58-0.4,1.15-0.61,1.73
					c-0.2,0.57-0.4,1.15-0.6,1.72c-0.2,0.57-0.4,1.14-0.6,1.71c-0.2,0.56-0.39,1.12-0.59,1.69c-0.19,0.55-0.39,1.1-0.58,1.66
					c-0.19,0.54-0.38,1.08-0.57,1.62c-0.18,0.52-0.37,1.05-0.55,1.57c-0.18,0.51-0.35,1.01-0.53,1.52
					c-0.17,0.48-0.34,0.97-0.51,1.45c-0.16,0.46-0.32,0.92-0.49,1.38c-0.15,0.44-0.31,0.87-0.46,1.31
					c-0.14,0.41-0.29,0.81-0.43,1.22c-0.13,0.38-0.26,0.75-0.39,1.13c-0.12,0.34-0.24,0.68-0.36,1.02c-0.11,0.3-0.21,0.61-0.32,0.91
					c-0.09,0.26-0.19,0.53-0.28,0.79c-0.08,0.22-0.16,0.44-0.23,0.67c-0.06,0.18-0.12,0.36-0.19,0.53
					c-0.05,0.13-0.09,0.26-0.14,0.39c-0.03,0.08-0.06,0.16-0.08,0.24c-0.01,0.03-0.02,0.05-0.03,0.08c-0.93,2.4-2.86,3.55-4.75,3.47
					c0,0,0,0,0,0c-0.04,0-0.07,0.01-0.1,0.01h37.12C140.57,146.13,140.54,146.03,140.51,145.93z"/>
				<path class="st7" d="M169.51,101.36c-0.32-1.15-0.63-2.29-0.94-3.44c-0.25-0.95-0.54-1.86-1.05-2.7
					c-0.5-0.82-1.18-1.54-2.02-2.01c-0.24-0.13-0.48-0.24-0.74-0.33c-0.4-0.14-1.08-0.24-1.51-0.24H128.3
					c-0.61,0-1.13,0.16-1.55,0.43c0,0-0.01,0-0.01,0.01c-0.02,0.01-0.04,0.03-0.07,0.04c-0.19,0.13-0.36,0.29-0.51,0.46
					c-0.01,0.02-0.02,0.03-0.04,0.05c-0.1,0.13-0.19,0.27-0.27,0.41c-0.31,0.61-0.39,1.36-0.17,2.1l5.95,19.98l8.5,28.57l0.43,1.43
					l1.62,5.63c0.1,0.3,0.96,2.62,3.32,3.36c1.16,0.36,2.18,0.18,2.69,0.05c0.08-0.02,0.18-0.04,0.29-0.08
					c0.01,0,0.02-0.01,0.03-0.01c0.01,0,0.03-0.01,0.04-0.01c0.02-0.01,0.04-0.01,0.06-0.02c0.13-0.05,0.46-0.17,0.86-0.41
					c0.16-0.1,0.3-0.2,0.42-0.29c0.25-0.2,0.44-0.39,0.58-0.53c0.09-0.09,0.18-0.19,0.28-0.3c0.11-0.13,0.23-0.27,0.34-0.43
					c0.67-0.91,1.03-1.84,1.11-2.03c0.42-1.1,0.77-2.16,1.08-3.1c0.17-0.51,0.32-0.99,0.47-1.4c0.37-1.05,0.73-2.1,1.1-3.15
					c0.46-1.32,0.92-2.64,1.38-3.96c0.53-1.52,1.06-3.04,1.59-4.56c0.58-1.65,1.15-3.3,1.73-4.95c0.6-1.71,1.19-3.42,1.79-5.13
					c0.59-1.7,1.19-3.4,1.78-5.1c0.57-1.62,1.13-3.24,1.7-4.87c0.51-1.47,1.03-2.95,1.54-4.42c0.44-1.25,0.88-2.51,1.31-3.76
					c0.34-0.97,0.67-1.93,1.01-2.9c0.17-0.48,0.34-0.96,0.5-1.44c0.04-0.13,0.09-0.25,0.13-0.38
					C169.38,101.73,169.44,101.55,169.51,101.36C169.51,101.37,169.51,101.37,169.51,101.36z"/>
			</g>
		</g>
	</g>
</g>
</svg>
